<?xml version="1.0" encoding="UTF-8"?>
<svg id="Layer_2" data-name="Layer 2" xmlns="http://www.w3.org/2000/svg" viewBox="0 0 1349.49 1010.03">
  <g id="Layer_1-2" data-name="Layer 1">
    <path id="dragon" d="M151.62,372.46c6.13-5.88,11.95-10.72,20.31-13.59-6.4-2.76,7.54-21.43,8.12-24.76.43-.84,3.02-2.61,3.34-1.94,3.98,9.27,15.68-12.25,19.22-18.17,11.73-17.11,4.27,23.92-6.96,29.87,5.29-3.7,26.75-22.98,31.94-27.84-4.12-2.46,4.96-9.67,5.08-19.99,0,0-5.95,13.18-5.95,13.18-13.9,15.49,4.25-34.57,15.51-39.42,9.43-20.97,44.68-34.53,50.52-41.17,0,0,29.61-23.6,29.61-23.6,2.23,4.18,4.57,5.58,7.03,1.25-12.09-2.15,6.69-13.37,7.85-17.2,3.55.24,8.19.2,8.63-4.99-11.61,1.23,4.1-12.65,4.2-15.94,0,0,8.08,1.12,8.08,1.12-11.13-12.39,6.76-34.2,2.53-54.6,21.21,14.26,16.55,83.95-6.14,82.2,1.18,4.75,1.92,7.97-.99,11.05l-14.9,15.72c-.75-1.64-.97-4.15-3.78-3.3,2.25,11.5-19.8,19.55-26.92,25.75,0,0,.54-4.81.54-4.81-5.28-5.74-1.51,7.53-6.75,8.88,0,0-17.98,13.06-17.98,13.06.4-11.2-1.71-5.58-7.45-1.69,5.68,4.71-.57,10.68-3.51,14.58-5.1-.89-8.39-1.86-14.11.43l9.79,4.15c-3.17,4.84-10.97,9.07-15.79,11.22,11.49-3.86-2.52,16.26-4.64,21.63,13.84-3.25,15.91-17.16,26.06-22.04,9.76-3.28,26.1-18.59,33.11-4.99,6.4-12.25,7.47-7.16-3.59-9.77,13.68-14.24,31.16-30.91,50.18-37.6,16.93-4.36,59.9-31.34,65.65-14.53,2.74,1.05,7.44.44,10.58-1.54-8.35-8.21-3.56-8.4,4.48-12.14,0,0,45.45-20.84,45.45-20.84,7.03,8.89,16.58,3.12,5.04-4.02,6.96-3.87,18.41-20.3,27.45-12.25,9.4-3.77-1.18-4.33-5.85-5.94,3.91-2.72,16.29-29.83,23.58-17.43,0,0,2.61-4.43,2.61-4.43-16.52-2.21,11.34-38.51,5.85-56.85,15.51,23.82,15.54,90.26-13.17,91.82,8.25,10.76-9.67,20.68-14.66,27.76-2.08-2.62-1.88-7.16-6.17-3.64.72,12.85-14.83,19.2-25.48,24.56,0,0-5.11,3.99-5.11,3.99,2.16-3.53,3.7-7.42-1.65-9.78.65,15.67-23.37,20.25-33.8,25.67,0,0,1.31-10.08,1.31-10.08-3.59,4.71-5.22,6.27-10.03,7.8-25.01,5.36-18.84,6.59-35.63,20.45,0,0-23.5,11.76-23.5,11.76l5.6-6.83c4.31-4.06,6.36-4.48-1.2-4.13-42.78,35.71-45.11,13.65-79.64,70.03,9.52-2.86,30.97-22.12,40.02-17.39,5.6-.07,2.73-7.13,9.33-6.67,5.38-.45,16.7-6.03,20.86-1.37,9.04-5.84,25.12-12.66,38.47-12.89,11.49-10.59,32.4-17.25,42.68-33.3-2.68,14.78-12.61,24.41-23.25,32.04-34.36,27.62-82.93,30.63-121.18,61.34,17.99-5.52,36.27-13.66,55.4-14.14,24.91-.76,90.29-32.71,34.06.24-24.86,20.59-152.75,36.23-52.26,45.59-16.23,1.7-43.08,17.88-62.71,12.51-90.56-11.86-209.67,87.7-212.79,56.2-29.35-29.56-19.45-71.07,27.62-66.68,20.17-7.44,39.7-14.92,59.83-21.55ZM366.46,247.85c8.13-4.03,10.44-10.27-.98-7.3.56,5.34-5.59,6.86-6.99,10.52,2.85,2.46,7.01-.75,7.98-3.22ZM300.45,298.23c-2.21.49-6.84,10.58-8.02,12.25,9.88-4.18,10.31-13.58,8.02-12.25ZM249.11,327.88l14.01-9.81c-6.22,1.61-13.48,2.6-14.01,9.81ZM252.08,377.89c-7.27,2.4-19.04,11.48-27.09,9.1-8.86-2.48-14.07-3.52-1.64-6.93,34.01-5.71,16.88-4.74,37.08-23.17,0,0-1.65,6.72-1.65,6.72,3.78-12.45,14.83-18.13,21.27-28.31-5.67,3.56-10.74,6.6-17.05,8.76,7.51-8.9,17.7-31.24,5.39-12.57.85-11.72-5.95,5.87-8.01,6.23-13.59,28.03-57.96,23.04-70.53,43.97-9.75,8.07-10.48-4.31-3.01-10.6-10.08,13.3-23.07,21.26-38.49,28.93,6.19-1.28,19.18-4.21,24.96-6.37,25.56-16.44,56.21,8.77,78.76-15.76ZM245.66,329.81c2.24-5.11-8.65,3.29-9.32,5.15,4.52.79,6.28-1.66,9.32-5.15ZM223.49,342.54c18.23-9.16-8.48-4.08-9.65,5.56,0,0,9.65-5.56,9.65-5.56ZM281.68,369.72c4.08-1.74,7.55-3.89,7.78-8.06-.19,1.37-22.7,13.23-7.78,8.06ZM107.47,410.8l9.16-3.27-11.95-7.38,1.26,4.98c-8.64,1.97-18.16,11.34,1.53,5.67ZM72.82,430.89c4.81-6.26,17.82-18.31,4.72-20.58-18.31-.54-21.03,33.53-4.45,12.28,0,0-.27,8.3-.27,8.3ZM373.47,551.58c18.07-9.69,12.42-6.17,2.77,7.46-5.47-1.54-10.69,1.58-13.15,7.49-9.71,27.58-25.29,56.07-44.88,77.48,22.14-16.99,42.26-39.84,54.88-65.17,4.09-9.8,28.74-11.03,19.74-25.24-5.42.93-14.02,4.27-4.72-3.1,8.76.98,17.37-32.01,20.33-37.08,7.17-18.08,22.51-38.95,26.68-52.38,9.33-40.62,63.12-131.32,64.06-132.52-60.21,50.29-130.64,137.2-127.05,142.94,14.15,34.27-25.75,72.62-45.38,98.12,8.17-1.67,10.34,6.65,9.77,13.56-14.04,41.7.16,17.65,12.19-8.22.13-8.98,5.63-26.36,3.99-7.97,0,0,9.44-17.15,9.44-17.15,17.5-31.9,32.93-71.3,47.36-103.88-1.23,11.4-15.14,58.63,1.1,40.27-13.31,13.92-25.06,47.14-37.13,65.4ZM230.69,484.98c24.98-22.86,42.43-70.96,73.34-70.49,0,0-7.96,10.1-7.96,10.1,9.27-9.24,32.65-20.72,7.58,0-7.92,10.52,14.7-6.49,15.53-7.23,13.27-9.47,61.83-22.45,24.26-1.97,11.13-.99,25.28-15.6,34.49-21.15-4.52,13.89-14.22,23.48-26.33,30.66l1.79,2.57-10.34,8.86c9.15-1.08,13.91-12.38,23.35-17.75-1.44,17.5-16.2,20.58-29.31,26.89,0,0,15.49-2.17,15.49-2.17,16.9,16.26-20.83,23.25-48.53,47.3-6.85,5.95-45.01,46.46-48.16,49.46-40.83,24.22,3.43,45.81-45.5,42.82,0,0-13-2.34-13-2.34,43.37,34.96-61.84-21.14-17.31,17.9-106.63-38.81,12.53-74.63,50.61-113.45ZM200.46,531.69c5.65,2.37,8.21-2.88,8.56-6.6l-8.56,6.6ZM232.61,551.22l-2.39-13.98c-3.79,4.76-3.08,11.6,2.39,13.98ZM170.48,551.82c-3.3-1.57-11.64-4.46-8.34,2.74,0,0,8.34-2.74,8.34-2.74ZM225.44,579.06c-4.28-4.33-8.25-7.08-13.21-4.05,4.48,2.15,7.94,3.85,13.21,4.05ZM362.61,712.72c128.1-58.59,337.01-103.6,445.75-129.72-15.26-1.01-12.07-350.44-61.93-287.22,5.03,58.52,15.6,204.09,20.38,264.28-119.4,37.03-341.03,110.27-404.2,152.65ZM317.5,714.97c131.84-84.11,280.43-144.02,431.66-182.84-9.75,1.69,4.81-264.79-26.37-226.09,2.81,24.1,1.84,187.38,2.95,215.5-152.89,45.81-310.93,101.56-434.88,204.69,0,0-30.37,28.01-30.37,28.01l57.02-39.28ZM319.86,682.43c2.58-16.36-31.02,17.98-36.93,18.9,8.51-11.06,20.56-22.86,32.7-28.74,7.14,1.84,6.16-6.72,2.63-16.05-23.75,26.97-56.99,57.97-84.89,81.29,26.24-32.33,60.86-62.07,82.79-98.29-27.25-10.02-37.32,35.1-58.63,47.01,3.64-13.78,23.4-32.24,30.95-44.3-39.92,14.38-55.75,69.7-81.59,100.41-1.93-1.66,15.36-28.83,15.26-30.29,0,0,21.9-39.71,21.9-39.71-52.81,38.82-74.08,116.74-103.86,172.83,40.16-35.09,142.66-124.1,179.66-163.08ZM770.17,88.11c-44.57,67.31-50.05,113.76-131.37,145.5,0,0,20.86-3.21,20.86-3.21-55.81,17.73,27.66,9.84,41.98-7.04-6.34.45-17.51,4.61-23.76.45,55.71-9.79,95.67-136.91,130.3-180.21,0,0,25.09-43.6,25.09-43.6-8.11,8.25-24.58,25.64-32.51,34.18-44.53,44.38-93.44,113.17-137.64,156.28,0,0-7.63,5.14-7.63,5.14l-5.94,13.66,8.21-6.22c28.9-25.4,62.36-65.87,87.37-94.85-24.63,39.36-62.58,81.59-96.01,111.73,58.5-20.74,83.13-88.9,121.07-131.81ZM622.63,160.1c-3.54,8.4-7.09,16.56-5.38,26.67,7.32-18.18,21.48-41.81,35.98-55.18,8.83-8.31,27.14-25.52,35.89-33.74,3.12.48-36.06,41.44-35.57,42.05-10.36,6.24-38.27,58.19-19.66,39.27,30.05-53.97,111.66-128.54,150.38-178.49-32.37,30.35-197.72,119.51-180.71,159.66,2.13,6.82,4.11,41.27,8.73,14.13.83-50.67,66.48-80.12,99.46-108.78-24.38,32.21-76.17,54.4-89.12,94.42ZM628.54,465.04c9.95-24.26-30.03-24.31-37.9-7.45,2-15.1,18.51-14.62,30.85-15.9-7.25-11.77-15.96-18.57-27.84-14.78-23.32,8.39-3.56-4.29,9.93-4.96-8.65-10.93-21.57-21.19-33.06-15.19-6.45,3.37-8.55-3.32-15.91,7.64-17.18,6.38,10.33-18.68,22.03-13.09-7.18-9.62-22.34-17.4-33.3-12.94l13.22,5.51c-6.61,3.33-15.14-1.9-19.68,3.48,6.75,1.73,14.11,4.24,21.63,3.18-6.75,10.95-18.6-2.83-39.18,5.16,11.98,4.62,22.05,9.11,31.86,16.09,5.5,2.48,18.44,18.24,22.78,7.55-8.42,6.93,4.29,16.71,7.92,22.67,10.98,7.05,1.35,23.3,11.3,29.81,6.39-5.22,15.04-4.87,15.19-6.73-2.89-6.44,12.48-8.96,15.63-11.02-6.26,9.01-1.88,8.99,4.54.98ZM75.01,617.32c6.4-5.62,38.53-35.97,44.22-40.86,0,0-7.35-10.75-7.35-10.75-92.16,87.21-84.03,45.02,20.26,80.16,28.63,11.81,52.03,31.39,68.11,57.76,15.2-48.67-84.23-84.17-125.24-86.31ZM585.48,260.29c-39.33,37.74-12,2.73,6.34-19.59-.58-2.96-5.19,4.75-5.88,4.77,3.41-10.6-1.23-3.93-6.06-.9,1.84-34.19,40.97-44.1,64.97-60.3,0,0,12.28-9.18,12.28-9.18l-11.66,23.78c-3.33,6.84-17.58,28.34-17.25,36.05-12.23,15.08-36.38,41.6-18.26,5.45-3,4.12-15.22,11.35-11.04,17.94-3.46,2.48-16.05,11.01-13.43,1.99ZM598.07,221.55c-3.76,13.28,21.62-13.12,23.44-13.32,8.89-8.19-19.07,7.97-23.44,13.32ZM619.07,228.97c2.85-2.82,4.31-7.11,5.66-10.69l-16.78,18.81c1.08,4.82,9.87-8.06,11.12-8.12ZM428.09,667.41c89.12-42.14,223.1-87.33,317.51-119.5-11.06.67-19.8,4.87-30.1,7.04-136.64,37.29-271.02,89.7-391.91,164.1,34.92-18.04,68.76-35.59,104.51-51.63ZM157.46,676.47c-44.56-25.44-113.2-46.85-157.46-11.82,87.31-33.27,248.9,82.01,157.46,11.82ZM697.78,256.58c-10.81-1.66-83.5,10.05-52.47-6.8,37.09-11.78,80.29,2.56,117.03-18.81-29.97,49.07-203.67,51.1-64.57,25.61ZM681.84,253.92c-4.89-.97-10.37-2.87-15.46-.66,5.64,2.02,10.55,1.96,15.46.66ZM486.51,365.82c-26.84,50.36,16.13-12.23,34.43-24.51,21.56-13.1,35.61-33.58,45.45-56.07,0,0-19.2,6.65-19.2,6.65-26.9,10.08-48.22,40.08-59.01,64.89,12.58-11.09,17.52-24.84,33.6-31.56-8.26,8.95-28.31,31-35.27,40.6ZM534.1,532.22c-9.17,10.63-23.63,9.47-33.34,20.6,39.54,2.05,81.73-28.4,72.64-72.26,0,0-10.34-21.63-10.34-21.63-.07,3.23-2.78,16.62-.47,19.28-14.31,19.2-21.29,22.49,5.35,10.35,5.09-1.83,3.61,1.5,2.77,4.54-5.51-7.81-25.67,15.44-30.65,17,19.09-2.39-9.85,4.89-10.71,14.13,0,0,25.76-5.79,25.76-5.79-17.42,6.15-59.72,29.28-21.03,13.77ZM662.49,430.28c-12.76-26.03-15.61-19.19-37.16-18.3,23.95-7.54,13.27-12.24-3.8-20.7-43.13,1.63-24.74,27.06-.04,23.44-14.92,6.91,3.63,16.39,7.8,26.64,11.69-16.89,14.01-11.21,33.2-11.07ZM621.28,298.4c-25.19,14.76,41.97,6.88,52.47,1.73,45.59-19.9,63.12-31.46,2.1-16.61-20.92-1.22-40.89-6.34-57.5,9.95,0,0,20.47.15,20.47.15,5.59,0,20.91.01,26.2-1.08-4.54,5.56-37.12,4.42-43.74,5.87ZM596.03,525.47c2.2.91,15.98-17.47,19.75-25.68-10.38-.42-17.92,13.86-21.69,21.58.75-7.46,12.63-16.57.57-18.26,0,0,9.1-3.07,9.1-3.07,14.18-4.78,19.67-5.94,22.31-25.08-12.94,4.85-26.14,4.91-34.48,11.8-7.12,30.3-24.22,58.44-46.25,80.26,8.35-2.72,56.86-35.46,42.73-38.37-4.24-4.27,5.67-5.25,7.95-3.16ZM541.13,347.45c12.76-3.63-40.87,32.95-47.98,48.17,25.48-26.16,68.13-33.04,80.63-68.74-18.31-8.56-38.55,13.85-54,29.24-16.51,18.14-37.48,40.53-49.25,62.28,22.43-23.73,40.21-56.19,70.6-70.95ZM517.6,299.92c6.69-2.33,22.03-25.59,21.09-14.84,0,0,10.32-14.75,10.32-14.75,6.03-9.64,22.05-24.87,23.63-36.2-7.46,6.72-13.25,10.28-22.17,14.19-30.11,6.9-50.91,65.83-22.52,26.67-4.69,15.59-42.5,54.32-10.34,24.95ZM623.48,500.66c.52,2.65-18.69,20.62-5.95,17.31-5.77,3.7-9.51,5.12-12.99,11.02,12.96-.58,25.85-6.1,31.22-19.01,5.55-4.08,22.92-22.06,7.82-15.74,3.5-6.55,11.54-4.29,16.13-14.16,5.9-13.49,8.16-20.1-7.03-9.43,5.08-11.12-2.18-.82-4.91.7,4.08-7.13-5.42-4.26-9.01-5.38-31.52,63.06,36.04-16.22-12.64,50.58-14.76,9.85,12.87-17.97,13.59-23.4-6.23,1.19-13.32,3-16.23,7.51ZM580.91,335.74c5.54,14.14,74.16-9.2,93.26-22.72-28.41,9.37-62.97-8.04-85.76,10.3,6.18.9,27.47.1,32.68,3.77-10.37.93-29.67-3.52-37.6,5.16,0,0,24.25-2.94,24.25-2.94l-26.82,6.43ZM561.82,217.94l-3.87,16.39c31.49-18.86,5.46-47.65,10.49-74.82-15.45,28.19-13.67,66.58-38.22,90.13,19.99-2.74,35.95-50.42,31.6-31.7ZM588.64,206.89c25.07-19.13,1.14-50.99,8.46-76.4-9.81,18.16-14.46,39.13-18.58,58.93-.05,7.61,4.6,15.49,1.45,23.92,11.51-7.18,7.74-25.56,10.26-39.02,2.89,10.29,1.73,20.97-1.59,32.56ZM600.57,296.03c10.02-10.42,57.46-35.13,11.13-23.42,35.02-32.08-34,9.99-42.83,27.99,2.9-2.65,24.07-17.74,25.94-13.91-25.39,19.86-23.8,13.63,5.76,9.34ZM671.47,446.27c.95-10.83-25.13-19.96-20.76-5.94-14.45-22.93-23.73,15.48-7.74,21.63,9.87,7.15,11.1-3.04,15.33-9.73-3.81,17.13,12.79,2.82,13.17-5.96ZM514.01,566.54c-27.87,15.48,29.67,7.33,41.15-27.24-18.62,15.26-123.96,31.77-41.15,27.24ZM475.34,585.41c8.76-.63,25.24-3.13,25.5-14.58-14.22-2.74-53.66,5.78-20.79,5.94-16.88,1.27-31.36,7.13-43.39,18.74,5.58-1.15,33.33-12.25,38.67-10.1ZM616.65,387.44c-9.73-7.2-39.9-14.19-13.66.56-5.06-2.17-15.15-6.77-20.09-9.17,0,0-21.61,5.03-21.61,5.03l27.96,2.98c-22.29,1.79-20.41.72-2.78,12.36,7.74-2.38,22.85-8.28,30.17-11.76ZM603.23,308.27c3.14-13.6-35.36,4.37-38.65,13.54,9.52-3.33,29.24-10.23,38.65-13.54ZM614.52,530.96c-12.12-5.48-24.5,14.81-33,20.3,12.75-4.24,22.78-11.32,33-20.3ZM224.24,415.13c-18.57-1.05-7.92,13.97-.32,18.68-2.24-6.63-2.43-12.9.32-18.68ZM204.38,420.75c-18.57-1.05-7.92,13.97-.32,18.68-2.24-6.63-2.43-12.9.32-18.68ZM184.51,426.36c-18.57-1.05-7.92,13.97-.32,18.68-2.24-6.63-2.43-12.9.32-18.68ZM164.65,431.98c-18.57-1.05-7.92,13.97-.32,18.68-2.24-6.63-2.43-12.9.32-18.68ZM143.62,439.65c-18.47,2.17-5.4,15.13,2.9,18.46-3.35-6.14-4.61-12.29-2.9-18.46ZM125.02,448.6c-18.47,2.17-5.4,15.13,2.9,18.46-3.35-6.14-4.61-12.29-2.9-18.46ZM106.42,457.55c-18.47,2.17-5.4,15.13,2.9,18.46-3.35-6.14-4.61-12.29-2.9-18.46ZM87.82,466.5c-18.47,2.17-5.4,15.13,2.9,18.46-3.35-6.14-4.61-12.29-2.9-18.46ZM437.06,249.22c-9.13,1.73-26.35,2.54-28.93,12.5,7.08-2.59,22.53-8.77,28.93-12.5ZM237.98,410.9c-12.25-3.09-12.51,12.08-.68,15.03-1.78-5.42-1.97-10.52.68-15.03ZM121.16,529.99c.87,8.63,5.24,19.34,9.42,27.2,9.45-14.33,4.01-14.16-9.42-27.2ZM139.54,516.77c-.53,6.92,2.17,20.06,4.66,26.82,12.65-10.25,4.34-14.29-4.66-26.82ZM156.51,506.72c-.49,5.18,2.17,20.2,4.33,25.3,14.22-9.1,2.69-14.19-4.33-25.3ZM173.01,496.88c1.97,10.39.79,34.02,14.62,14.25-6.53-2.55-12.3-10.54-14.62-14.25ZM190.15,486.71c1.69,9.7.6,32.29,14.37,13.64-6.94-1.65-13.28-11.75-14.37-13.64ZM219.07,454.66c4.1,13.92,9.04,31.95,17.55,12.83-4.95.48-14.15-7.75-17.55-12.83ZM230.69,441.28c2.88,19.6,10.75,31.69,19.8,16.26-2.93-.02-13.09-6.26-19.8-16.26ZM242.6,409.14c2.44,30.57,10.36,56.5,18.94,32.94,0,0-10.74-11.34-18.94-32.94ZM200.46,441.35c1.7,44.55,6.09,69.1,22.61,42.14,0,0-12.68-12.94-22.61-42.14ZM214.79,380.7c8.52-6.87,3.78-20.87-4.33-9.27.19,6.57-4.47,11.43-10.03,6.37-5.81,10.12,11.21,7.61,14.36,2.9Z"/>
    <path id="monster" d="M399.16,822.76c-16.64-19.87-33.2-39.8-49.67-59.81,1.16,21.13,2.31,42.26,3.47,63.38.09,1.56.57,2.64,1.46,3.23s2.44.86,4.64.8c.05.97.08,1.45.14,2.42-12.14,3.1-24.26,6.26-36.38,9.46-.04-.96-.06-1.44-.11-2.41,2.15-1.08,3.63-2.13,4.44-3.15.81-1.03,1.18-2.32,1.1-3.87-1.34-29.01-2.68-58.02-4.02-87.04-.07-1.51-.53-2.54-1.38-3.11-.85-.56-2.34-.79-4.46-.68-.04-.96-.06-1.44-.11-2.41,15.31-4.5,30.64-8.93,46-13.26.06.97.09,1.46.15,2.43-2.71,1.38-4,3.16-3.87,5.33.06,1.01.54,2.06,1.44,3.14,12.15,14.97,24.34,29.91,36.58,44.81,10-20.54,19.84-41.15,29.53-61.84,1.28-2.74,1.87-4.65,1.78-5.73-.17-2.1-1.74-2.89-4.69-2.36-.08-.98-.12-1.47-.2-2.46,15.13-4.04,30.28-8.01,45.45-11.88.1.99.14,1.49.24,2.48-2.07,1.06-3.48,2.11-4.22,3.14-.75,1.04-1.05,2.33-.9,3.88,2.82,29.82,5.64,59.63,8.47,89.45.15,1.6.69,2.71,1.62,3.34.93.63,2.52.95,4.76.97l.24,2.48c-12.98,2.94-25.95,5.94-38.9,9-.08-.98-.12-1.48-.21-2.46,2.09-.96,3.54-1.97,4.34-3.03.81-1.05,1.14-2.38,1.01-3.97-1.85-21.5-3.7-43.01-5.55-64.51-13.76,28.23-27.82,56.31-42.19,84.23ZM547.71,696.61c13.07-3.09,27.76-3.95,41.15,1.73,12.95,5.49,22.26,18.37,24.12,32.2,1.91,14.12-4.55,28.86-14.73,38.81-10.49,10.26-25.52,16.53-39.31,19.06-13.79,2.52-28.06,3.38-41.81-1.96-12.95-5.04-21.94-16.49-23.1-30.47-1.22-14.7,4.81-29.49,15.54-39.43,10.95-10.14,24.55-16.72,38.13-19.93ZM549.81,713.26c-8.51,1.68-18.92,7.56-24.3,14.52-5.26,6.8-7.73,14.32-6.83,22.49.89,8.12,4.68,14.2,11.42,18.27,7.27,4.38,16.45,5.13,26.85,3.2,8.51-1.59,19.22-7.3,24.67-14.25,5.24-6.68,7.63-14.08,6.58-22.1-1.14-8.71-5.11-15.11-11.85-19.07-7.31-4.3-16.32-5.08-26.53-3.06ZM654.24,706.8l7.66,50.96c.25,1.66.89,2.86,1.91,3.6,1.03.74,2.65,1.18,4.89,1.32.14.9.21,1.35.34,2.25-11.43,2.11-22.85,4.24-34.27,6.4-.13-.89-.19-1.34-.32-2.23,2.08-.89,3.5-1.87,4.26-2.95.76-1.07,1.02-2.44.78-4.09-3.51-24.39-7.03-48.78-10.54-73.18-.24-1.65-.84-2.81-1.8-3.49-.96-.67-2.56-1.08-4.79-1.2-.13-.89-.19-1.34-.32-2.23,12.84-2.75,25.68-5.44,38.54-8.08.14.9.21,1.35.35,2.25-2.54,1.13-3.7,2.44-3.47,3.94.2,1.29,1.38,2.59,3.57,3.92,20.8,12.54,41.55,25.15,62.26,37.82-2.81-16.72-5.62-33.43-8.42-50.15-.28-1.68-.92-2.89-1.91-3.62-.99-.73-2.61-1.16-4.86-1.29-.15-.91-.23-1.36-.38-2.27,11.15-2.15,22.31-4.26,33.47-6.35.16.92.24,1.37.4,2.29-2.07.95-3.44,1.95-4.13,3-.69,1.05-.88,2.42-.59,4.11,4.33,24.9,8.66,49.81,12.99,74.71.29,1.69.95,2.91,1.97,3.66,1.02.75,2.69,1.25,5.01,1.49.16.92.24,1.37.4,2.29-12.37,2.01-24.73,4.08-37.09,6.2-.15-.91-.23-1.36-.38-2.27,2.63-.95,3.82-2.17,3.57-3.68-.13-.75-.63-1.47-1.5-2.15-.87-.68-2.83-1.97-5.85-3.87-20.54-12.44-41.13-24.81-61.75-37.12ZM857.84,646.78c-3.11,9.5-4.68,14.25-7.85,23.72-.96-.3-1.44-.45-2.41-.75-.37-1.84-1.3-3.18-2.78-4.04-4.03-2.29-9.59-3.82-16.67-4.56-7.08-.74-14.06-.53-20.95.62-5.86.98-10.92,2.61-15.17,4.87-6.13,3.25-8.82,6.92-8.07,10.99.5,2.69,2.43,4.33,5.8,4.93,3.37.6,9.64.47,18.82-.34,5.84-.54,8.76-.81,14.61-1.33,10.02-.42,20.43-1.16,30.12,2.19,4.07,1.45,7.63,3.68,10.7,6.67,3.84,3.74,6.32,8.24,7.4,13.49,1.96,9.54-1.25,17.85-9.65,24.58-9.88,7.92-23.1,11.76-35.36,13.2-15.93,1.87-30.87,1-46.93-1.9-1.06-.23-1.92-.28-2.6-.18-1.23.2-2.25,1.04-3.06,2.52-.98-.18-1.47-.27-2.46-.45,2.64-9.67,3.95-14.51,6.53-24.21.98.18,1.47.27,2.45.45.06.33.1.55.12.66.26,1.42,1.09,2.53,2.5,3.32,3.51,1.92,9.21,3.16,17.1,3.76,7.89.6,15.55.35,22.93-.76,6.53-.99,12.24-2.65,17.09-4.94,6.01-2.84,8.62-6.35,7.78-10.57-.67-3.39-3.36-5.42-8.03-6.09-3.12-.44-8.56-.39-16.33.19-5.85.46-8.77.7-14.62,1.18-7.87.68-13.94.92-18.19.71-4.26-.21-8.07-.91-11.43-2.1-4.3-1.53-7.89-4.01-10.76-7.41-2.87-3.4-4.59-7.52-5.51-11.82-1.86-8.65,3.31-20.38,10.12-25.6,8.8-6.74,20.08-10.65,30.78-12.87,6.64-1.37,13.51-1.58,19.78-1.16,6.27.41,13.92,1.72,22.98,3.95,2.69.66,4.52.92,5.49.77.97-.15,2.08-.96,3.34-2.43.96.3,1.44.45,2.4.74ZM934.25,644.39c5.11,23.05,10.23,46.11,15.34,69.17.39,1.76,1.12,3.05,2.2,3.87,1.08.83,2.8,1.42,5.17,1.78.21.95.32,1.43.53,2.38-12.29,1.45-24.58,2.95-36.86,4.5-.2-.95-.3-1.42-.51-2.36,2.06-.78,3.44-1.71,4.13-2.78.69-1.07.85-2.48.47-4.23-4.97-22.97-9.93-45.93-14.9-68.9-10.02,1.43-20.04,2.9-30.05,4.41-1.94.29-3.33.91-4.16,1.86-.84.95-1.35,2.46-1.55,4.54-.98.15-1.48.22-2.46.37-1.92-9.25-3.83-18.51-5.75-27.76.98-.15,1.46-.23,2.44-.38.95,1.87,2.01,3.14,3.17,3.79,1.16.66,2.72.83,4.65.54,28.06-4.29,56.14-8.36,84.26-12.2,1.94-.26,3.32-.86,4.13-1.79.82-.93,1.29-2.47,1.43-4.6.98-.13,1.47-.2,2.45-.33,2.18,9.45,4.36,18.9,6.54,28.35-.99.13-1.48.19-2.47.32-1.08-1.94-2.21-3.26-3.4-3.94-1.19-.68-2.76-.9-4.71-.64-10.04,1.31-20.08,2.66-30.11,4.04ZM1024.83,672.03c2.26,9.43,3.39,14.15,5.65,23.59,22.02-2.28,44.06-4.43,66.11-6.44,1.92-.17,3.29-.71,4.11-1.6.82-.9,1.27-2.44,1.35-4.62,1.04-.09,1.56-.14,2.6-.23,2.47,9.68,4.93,19.36,7.4,29.04-1.05.09-1.57.13-2.62.22-1.08-2-2.26-3.38-3.53-4.14-1.28-.76-2.88-1.05-4.81-.89-32.49,2.84-64.94,5.99-97.37,9.43-.22-.96-.34-1.44-.56-2.4,2.05-.75,3.42-1.66,4.09-2.73.67-1.07.8-2.49.38-4.27-6.15-26.25-12.3-52.5-18.45-78.74-.42-1.78-1.16-3.07-2.22-3.88-1.06-.81-2.76-1.39-5.09-1.73-.22-.96-.34-1.44-.56-2.4,30.69-3.95,61.41-7.63,92.16-11.04,1.95-.21,3.32-.78,4.11-1.71.8-.93,1.23-2.47,1.31-4.64.98-.11,1.48-.16,2.46-.27,2.46,9.68,4.92,19.35,7.38,29.03-.99.1-1.49.15-2.48.25-1.15-2.07-2.33-3.45-3.55-4.15-1.21-.7-2.79-.95-4.75-.74-20.76,2.21-41.5,4.54-62.24,6.98,2.04,8.5,3.05,12.75,5.09,21.25,12.93-1.48,25.88-2.9,38.82-4.26,1.9-.2,3.26-.76,4.07-1.68.81-.92,1.29-2.46,1.45-4.63.99-.1,1.49-.16,2.48-.26,2.34,9.4,4.69,18.79,7.03,28.19-1,.1-1.5.15-2.5.25-1.13-2-2.31-3.36-3.53-4.09s-2.82-.99-4.79-.79c-13,1.32-26,2.7-38.99,4.13ZM1146.73,661.69c2.78,10.55,5.56,21.09,8.34,31.64.48,1.83,1.29,3.19,2.42,4.1,1.13.91,2.9,1.6,5.32,2.09.26.99.39,1.49.66,2.48-12.35.89-24.7,1.84-37.05,2.83-.25-.99-.38-1.48-.64-2.47,2.04-.7,3.39-1.59,4.03-2.66.64-1.07.73-2.52.26-4.34-6.96-26.91-13.93-53.82-20.89-80.73-.47-1.82-1.26-3.16-2.35-4.01-1.09-.85-2.82-1.49-5.18-1.91-.25-.99-.38-1.48-.63-2.46,22.34-2.27,44.69-4.41,67.06-6.41,8.72-.77,15.48-.9,20.3-.41,4.81.49,9.33,1.72,13.57,3.71,9.06,4.3,15,12.9,17.56,22.37,2.19,8.12,1.75,14.71-1.57,19.61-3.33,4.9-9.85,8.72-19.56,11.48,9.01,8.39,18.01,16.79,27.01,25.19,4.96,4.68,8.78,7.85,11.42,9.5,2.64,1.64,5.41,2.63,8.29,2.96.28,1.01.42,1.52.71,2.53-14.71.82-29.42,1.69-44.13,2.61-.27-1-.41-1.5-.68-2.5,3.02-1.04,4.28-2.48,3.78-4.33-.36-1.31-1.9-3.24-4.62-5.78-9.51-9.03-19.02-18.06-28.53-27.08-9.95.77-14.92,1.17-24.87,1.99ZM1142,643.71c12.43-1.08,24.86-2.11,37.29-3.09,5.66-.45,9.7-1.39,12.07-2.76,3.33-1.92,4.41-5.24,3.1-10.02-1.16-4.24-3.31-7.1-6.43-8.55-3.12-1.46-8.08-1.91-14.88-1.34-12.37,1.04-24.73,2.12-37.09,3.26,2.37,9,3.56,13.5,5.93,22.5Z"/>
    <path id="hunter" d="M573.28,869.14c-23.9,5.43-47.72,11.11-71.5,17.03.91,12.3,1.82,24.6,2.73,36.91.11,1.5.64,2.56,1.58,3.17.94.62,2.5.9,4.67.84.07.96.11,1.44.18,2.4-13,3.05-25.98,6.18-38.94,9.4-.06-.95-.1-1.43-.16-2.38,2.16-1.04,3.63-2.06,4.43-3.07.8-1,1.14-2.25,1.04-3.74-1.96-28.71-3.92-57.43-5.88-86.14-.1-1.49-.6-2.52-1.48-3.08-.89-.56-2.42-.79-4.59-.68-.06-.95-.1-1.43-.16-2.38,12.66-3.58,25.34-7.08,38.04-10.49.07.96.11,1.44.18,2.4-2.11,1.03-3.56,2.07-4.33,3.12-.78,1.05-1.11,2.32-1,3.83.81,11,1.63,22,2.44,33.01,23.69-6.03,47.43-11.82,71.23-17.36-.99-11.22-1.97-22.44-2.96-33.66-.13-1.53-.66-2.61-1.57-3.25-.92-.64-2.47-.92-4.67-.85l-.21-2.44c12.77-3.15,25.56-6.21,38.37-9.19.09.99.14,1.48.23,2.47-2.12,1.02-3.56,2.04-4.33,3.05-.77,1.02-1.08,2.3-.93,3.84,2.76,29.73,5.52,59.46,8.28,89.18.14,1.54.68,2.64,1.62,3.29.93.65,2.53,1.01,4.79,1.08.09.99.14,1.48.23,2.47-13.09,2.6-26.16,5.29-39.22,8.07-.08-.98-.13-1.47-.21-2.44,2.1-.92,3.56-1.89,4.38-2.92.81-1.03,1.15-2.31,1.02-3.84-1.1-12.55-2.21-25.09-3.31-37.64ZM730.48,803.73c1.81,15.8,3.62,31.61,5.43,47.41,1.24,10.82-.32,19.16-4.69,25-9.91,12.55-28.92,16.99-43.7,19.43-11.75,1.95-24.51,3.22-36.29.65-6.76-1.47-11.65-4.62-14.54-9.23-2.66-4.24-4.34-9.85-5.03-16.84-1.51-15.36-3.01-30.72-4.52-46.09-.16-1.61-.7-2.73-1.63-3.38s-2.51-1.01-4.74-1.11c-.08-.87-.13-1.3-.21-2.17,11.97-2.63,23.96-5.19,35.97-7.68.09.88.14,1.32.23,2.19-2.16.98-3.61,1.99-4.36,3.02-.75,1.03-1.04,2.36-.87,3.98,1.44,14.06,2.87,28.11,4.31,42.17.5,4.9,1.39,8.56,2.67,10.98,1.28,2.42,3.26,4.23,5.96,5.43,5.39,2.46,12.86,2.84,22.4,1.16,9.54-1.68,16.66-4.64,21.33-8.93,2.28-2.11,3.76-4.57,4.45-7.39.69-2.82.76-6.71.2-11.69-1.59-14.28-3.17-28.55-4.76-42.83-.18-1.64-.73-2.81-1.65-3.5-.92-.69-2.53-1.12-4.85-1.27-.1-.89-.15-1.33-.24-2.22,11.35-2.14,22.7-4.24,34.07-6.3.1.9.16,1.34.26,2.24-2.13.93-3.58,1.91-4.33,2.94-.75,1.03-1.04,2.38-.85,4.03ZM783.38,817.91c2.08,17.16,4.17,34.32,6.25,51.48.2,1.67.81,2.91,1.82,3.7,1.01.79,2.63,1.31,4.87,1.56.11.91.17,1.36.28,2.27-11.54,1.58-23.07,3.2-34.6,4.87-.11-.9-.16-1.35-.27-2.25,2.11-.8,3.56-1.72,4.35-2.77.79-1.04,1.09-2.4.89-4.06-2.91-24.6-5.83-49.2-8.74-73.8-.2-1.66-.78-2.86-1.73-3.57s-2.57-1.18-4.84-1.39c-.11-.9-.16-1.35-.27-2.25,13.12-2.28,26.26-4.46,39.42-6.56.11.91.17,1.37.28,2.28-2.62,1.03-3.84,2.3-3.65,3.81.16,1.3,1.32,2.66,3.5,4.08,20.68,13.49,41.23,27.17,61.67,41.02-2.2-16.97-4.4-33.94-6.6-50.91-.22-1.7-.82-2.95-1.8-3.74-.98-.79-2.61-1.3-4.89-1.54-.12-.92-.18-1.38-.3-2.31,11.41-1.61,22.83-3.17,34.25-4.7.12.93.19,1.4.31,2.33-2.14.84-3.58,1.78-4.32,2.8-.74,1.03-1,2.4-.77,4.11,3.35,25.32,6.7,50.64,10.05,75.96.23,1.72.84,2.98,1.83,3.8.99.82,2.65,1.41,4.97,1.79.12.93.19,1.4.31,2.33-12.49,1.31-24.98,2.69-37.45,4.16-.12-.92-.18-1.38-.3-2.3,2.67-.81,3.91-1.98,3.71-3.51-.1-.76-.58-1.51-1.43-2.24-.85-.73-2.77-2.13-5.75-4.2-20.25-13.59-40.61-27.01-61.09-40.25ZM950.85,781.47l9.73,69.06c.25,1.75.87,3.06,1.88,3.92,1,.86,2.68,1.52,5.01,1.96.13.95.2,1.43.34,2.38-12.36.95-24.72,1.98-37.07,3.09-.13-.94-.19-1.41-.32-2.36,2.11-.7,3.55-1.57,4.33-2.6.77-1.03,1.04-2.42.8-4.17-3.17-22.89-6.34-45.79-9.51-68.68-10.18,1.11-20.36,2.27-30.53,3.49-1.97.24-3.41.81-4.32,1.73-.91.92-1.54,2.4-1.89,4.45-1,.12-1.5.18-2.5.3-1.48-11.04-2.22-16.56-3.7-27.6.99-.13,1.49-.19,2.49-.32.81,1.88,1.79,3.15,2.91,3.83,1.12.68,2.67.9,4.64.65,28.58-3.5,57.18-6.64,85.84-9.42,1.98-.19,3.42-.73,4.32-1.62.9-.89,1.52-2.4,1.84-4.51,1-.09,1.5-.14,2.5-.23l4.1,28.38c-1,.09-1.5.13-2.51.22-.91-1.97-1.94-3.32-3.07-4.04-1.14-.72-2.7-1-4.68-.82-10.21.92-20.41,1.89-30.6,2.92ZM1039.31,812.53c1.4,9.47,2.1,14.2,3.51,23.67,22.2-1.2,44.4-2.2,66.61-3,1.94-.07,3.36-.52,4.27-1.37.91-.84,1.51-2.35,1.8-4.52,1.05-.03,1.57-.05,2.62-.09,1.5,9.76,3,19.52,4.5,29.28-1.05.03-1.58.04-2.63.07-.88-2.05-1.92-3.49-3.11-4.31-1.2-.83-2.76-1.21-4.7-1.15-32.65,1.02-65.27,2.5-97.89,4.45-.14-.96-.21-1.45-.35-2.41,2.11-.65,3.55-1.49,4.31-2.52.76-1.03,1.01-2.44.75-4.22-3.84-26.3-7.69-52.61-11.53-78.91-.26-1.78-.89-3.1-1.89-3.94-1-.84-2.66-1.49-4.97-1.92-.14-.96-.21-1.44-.35-2.41,31.27-2.69,62.57-4.95,93.9-6.78,1.98-.11,3.42-.61,4.32-1.49.9-.88,1.49-2.4,1.79-4.55,1-.06,1.5-.08,2.51-.14,1.5,9.75,2.99,19.51,4.49,29.26-1.01.05-1.51.07-2.52.12-.95-2.12-2-3.55-3.15-4.31-1.15-.76-2.72-1.09-4.7-.99-21.1,1.13-42.18,2.44-63.26,3.94,1.26,8.53,1.9,12.8,3.16,21.33,13.11-.88,26.22-1.67,39.34-2.38,1.93-.1,3.34-.59,4.24-1.46.9-.87,1.53-2.38,1.9-4.52,1.01-.05,1.51-.08,2.52-.13,1.44,9.46,2.87,18.91,4.31,28.37-1.01.05-1.52.07-2.53.11-.94-2.05-1.98-3.46-3.14-4.25-1.15-.79-2.73-1.13-4.72-1.03-13.14.65-26.28,1.38-39.42,2.2ZM1162.37,808.81c1.67,10.66,3.34,21.32,5.01,31.98.29,1.85.95,3.26,1.98,4.23,1.03.97,2.72,1.77,5.08,2.41.16,1,.24,1.51.39,2.51-12.4.1-24.81.28-37.21.54-.15-.99-.23-1.49-.39-2.49,2.11-.58,3.54-1.38,4.29-2.41.75-1.03.98-2.46.7-4.3-4.21-27.16-8.43-54.33-12.64-81.49-.29-1.84-.94-3.21-1.95-4.12-1.01-.91-2.69-1.64-5.02-2.19-.15-.99-.23-1.49-.38-2.49,22.76-1.02,45.53-1.83,68.3-2.43,8.88-.21,15.72.1,20.51.9,4.8.8,9.21,2.33,13.25,4.6,8.03,4.1,14.01,15.04,15.07,23.49,1.01,8.05.05,14.77-3.85,19.42-3.9,4.65-10.87,8-20.9,10.09,8.08,8.96,16.14,17.93,24.17,26.93,4.43,5.01,7.87,8.44,10.32,10.27,2.45,1.83,5.09,3.01,7.93,3.55.17,1.03.25,1.54.41,2.57-14.76-.25-29.51-.42-44.28-.52-.16-1.01-.24-1.52-.4-2.54,3.13-.83,4.54-2.18,4.25-4.05-.21-1.33-1.54-3.35-3.98-6.07-8.5-9.63-17.02-19.24-25.57-28.83-10.05.13-15.07.21-25.11.43ZM1159.53,790.63c12.58-.33,25.17-.57,37.76-.74,5.73-.08,9.89-.75,12.43-1.96,3.56-1.69,5.02-4.92,4.24-9.77-.69-4.3-2.52-7.29-5.5-8.94-2.98-1.66-7.92-2.43-14.82-2.3-12.56.24-25.12.56-37.67.96l3.56,22.74Z"/>
    <path id="codex" d="M817.85,972.92c5.56,7.99,8.38,12.01,14.1,20.09-.88.61-1.32.91-2.2,1.51-1.41-.9-2.54-1.33-3.4-1.29-1.04.04-3.52,1.18-7.45,3.39-8.69,4.79-16.38,8.14-22.98,10.08s-14.38,3.29-22.6,3.33c-13.81.08-27.87-1.13-40.09-9.27-5.52-3.84-9.67-8.74-12.38-14.69-2.93-6.4-3.7-13.57-2.81-21.17,1.15-9.81,6.83-21.63,13.8-28.76,12.4-14.37,31.92-21.3,50.35-22.55,7.95-.54,14.98-.21,21.06,1.07,6.07,1.29,12.91,3.88,20.59,7.82,3.5,1.83,5.76,2.71,6.76,2.65.82-.05,1.97-.6,3.43-1.65.77.55,1.16.83,1.94,1.38-6.44,8.64-9.7,12.94-16.29,21.49-.75-.49-1.12-.73-1.87-1.22.1-.67.22-1.1.27-1.26.13-.44.15-.87.16-1.09.19-2.72-3.61-5.57-11.31-8.51-7.3-2.79-14.9-3.77-22.4-3.44-8.85.39-20.29,4.48-27.33,9.53-6.65,4.77-13.77,14.69-14.6,23.25-.87,9.05,2.11,16.56,9.68,22.08,6.67,4.86,15.58,7.1,26.64,6.66,8.67-.35,17.52-2.64,26.37-6.96,6.92-3.38,10.45-6.29,10.61-8.63,0-.11-.03-.89-.11-2.33.84-.61,1.26-.91,2.09-1.52ZM906.13,904.79c13.52-1.07,27.85,1.32,38.97,9.14,12.33,8.67,19.19,24.22,19.45,39,.26,14.93-7.05,30.13-18.92,39.4-12.07,9.43-26.86,12.81-40.95,13.28-13.67.46-28.26-2.13-40.57-10.2-12.27-8.04-18.51-22.89-17.75-37.15.81-15.06,8.52-30.04,20.77-39.15,11.17-8.3,25.02-13.21,39-14.32ZM905.92,923.08c-8.47.28-19.35,4.88-25.22,11.09-5.95,6.29-9.46,13.88-9.79,22.81-.32,8.87,2.45,16.12,8.4,21.78,6.42,6.1,15.3,8.68,25.66,8.54,8.54-.11,19.91-4.46,25.88-10.79,5.89-6.24,9.16-13.82,9.13-22.67-.04-9.61-3.09-17.22-9.06-22.69-6.48-5.93-15-8.4-25-8.07ZM986.86,991.65c-.79-27.08-1.59-54.16-2.38-81.23-.05-1.83-.5-3.2-1.35-4.08-.84-.89-2.33-1.59-4.45-2.09-.03-.99-.04-1.49-.06-2.48,19.15-1.34,38.29-2.69,57.44-4.03,8.89-.93,20.04-.46,28.58,2.66,9.93,3.64,17.96,11.07,22.8,20.4,3.58,6.9,5.71,15.32,6.69,24.62,1.5,14.24-1.85,30.02-12.23,40.56-4.4,4.2-9.76,7.31-16.06,9.32-6.3,2.02-14.28,3.18-23.89,3.51-20.24.7-40.49,1.39-60.73,2.09-.03-.99-.04-1.49-.06-2.48,2.14-.61,3.64-1.43,4.5-2.47.86-1.04,1.27-2.47,1.21-4.3ZM1011.13,981.7c10.47-.43,15.71-.64,26.18-1.06,12.02-.49,20.58-3.56,25.61-9.24,5.25-5.94,7.45-14.19,6.67-24.71-.78-10.51-4.16-18.47-10.06-23.84-2.92-2.68-6.43-4.55-10.52-5.59-4.09-1.05-9.2-1.37-15.32-.98-10.11.64-15.16.96-25.26,1.6.9,21.28,1.81,42.55,2.71,63.83ZM1140.23,950.9c1.12,10.18,1.68,15.27,2.8,25.44,21.69-.88,43.39-1.76,65.08-2.64,1.89-.08,3.28-.57,4.16-1.49.88-.92,1.46-2.54,1.73-4.88,1.02-.04,1.53-.07,2.55-.11,1.53,10.52,3.06,21.04,4.6,31.56-1.04.03-1.56.05-2.6.08-.88-2.21-1.91-3.75-3.09-4.63-1.18-.89-2.73-1.29-4.63-1.23-32.14,1.11-64.28,2.21-96.41,3.32-.1-1.03-.15-1.55-.25-2.59,2.1-.63,3.55-1.48,4.34-2.57.79-1.08,1.09-2.58.9-4.49-2.76-28.24-5.52-56.48-8.29-84.72-.19-1.91-.74-3.33-1.65-4.26-.91-.93-2.45-1.66-4.62-2.19-.1-1.03-.15-1.55-.25-2.58,29.49-2.07,58.98-4.14,88.48-6.21,1.86-.13,3.22-.67,4.05-1.63s1.38-2.6,1.63-4.92c.94-.07,1.41-.1,2.35-.17,1.52,10.51,3.03,21.02,4.55,31.53-.96.06-1.44.09-2.39.15-.92-2.28-1.93-3.82-3.03-4.63-1.1-.81-2.59-1.16-4.47-1.04-20.02,1.27-40.05,2.54-60.07,3.81,1.01,9.17,1.51,13.76,2.52,22.93,12.58-.7,25.16-1.39,37.74-2.09,1.85-.1,3.21-.62,4.08-1.56.87-.94,1.48-2.56,1.83-4.86.96-.06,1.44-.08,2.41-.14,1.36,10.18,2.71,20.37,4.07,30.55-.98.05-1.47.07-2.45.12-.9-2.2-1.9-3.73-3.02-4.58-1.11-.85-2.63-1.23-4.56-1.13-12.7.62-25.41,1.25-38.11,1.87ZM1293.01,932.74c12.82,14.08,25.68,28.11,38.58,42.11,3.37,3.65,6.37,6.27,8.98,7.87,2.61,1.6,5.4,2.55,8.38,2.84.22,1.07.33,1.6.54,2.67-15.89.55-31.77,1.09-47.66,1.64-.19-1.05-.29-1.58-.48-2.64,3.71-1.05,5.33-2.85,4.86-5.39-.24-1.3-1.64-3.35-4.19-6.14-6.77-7.37-13.53-14.76-20.27-22.17-5.2,9.43-7.84,14.13-13.2,23.47-1.27,2.32-1.77,4.32-1.49,6,.39,2.32,2.69,4.05,6.91,5.21.18,1.05.27,1.57.45,2.62-14.69.51-29.38,1.01-44.07,1.52-.16-1.03-.23-1.55-.39-2.58,2.85-.81,5-1.89,6.46-3.26,1.46-1.37,3.36-4.09,5.67-8.17,8.17-13.93,16.17-27.96,23.91-42.13-10.93-12.08-21.81-24.2-32.65-36.36-6.69-7.59-12.11-11.61-16.34-12.09-.16-1.07-.24-1.61-.41-2.68,14.9-1.05,29.79-2.09,44.69-3.14.19,1.09.28,1.63.47,2.72-3.59,1.43-5.16,3.49-4.7,6.21.27,1.61,1.55,3.72,3.83,6.31,6.48,7.23,9.74,10.86,16.33,18.15,3.91-7.39,5.84-11.1,9.65-18.55,1.74-3.8,2.45-6.53,2.15-8.16-.54-2.93-2.83-4.73-6.84-5.37-.2-1.09-.3-1.64-.5-2.73,14.21-1,28.43-2,42.64-2.99.22,1.11.34,1.66.56,2.77-3,.94-5.12,2.14-6.34,3.59-1.22,1.45-3.18,5.07-5.93,10.84-6.41,12.75-12.94,25.43-19.6,38.05Z"/>
  </g>
</svg>